name ./resultDataOpenSim/trcMotMarkerGrf/sub10/grf-02-06.mot
datacolumns 19
datarows 22
range 1.09200000 1.17600000
endheader

                time	     ground_force_vx	     ground_force_vy	     ground_force_vz	     ground_force_px	     ground_force_py	     ground_force_pz	   l_ground_force_vx	   l_ground_force_vy	   l_ground_force_vz	   l_ground_force_px	   l_ground_force_py	   l_ground_force_pz	     ground_torque_x	     ground_torque_y	     ground_torque_z	   l_ground_torque_x	   l_ground_torque_y	   l_ground_torque_z	
          1.09200000	          0.00000000	          0.00000000	          0.00000000	          0.00000000	          0.00000000	          0.00000000	          1.87293495	        451.75621086	         24.76951873	         -0.03208580	         -0.02500000	         -0.05562183	          0.00000000	          0.00000000	          0.00000000	          0.00000000	         -3.27014513	          0.00000000	
          1.09600000	          0.00000000	          0.00000000	          0.00000000	          0.00000000	          0.00000000	          0.00000000	          4.61483252	        456.19611400	         25.62973602	         -0.03150649	         -0.02500000	         -0.05565176	          0.00000000	          0.00000000	          0.00000000	          0.00000000	         -3.52128579	          0.00000000	
          1.10000000	          0.00000000	          0.00000000	          0.00000000	          0.00000000	          0.00000000	          0.00000000	          7.57229342	        461.58752109	         26.46437165	         -0.03081879	         -0.02500000	         -0.05562712	          0.00000000	          0.00000000	          0.00000000	          0.00000000	         -3.78104504	          0.00000000	
          1.10400000	          0.00000000	          0.00000000	          0.00000000	          0.00000000	          0.00000000	          0.00000000	         10.65337944	        467.93453453	         27.21045550	         -0.03005323	         -0.02500000	         -0.05559100	          0.00000000	          0.00000000	          0.00000000	          0.00000000	         -4.04551066	          0.00000000	
          1.10800000	          0.00000000	          0.00000000	          0.00000000	          0.00000000	          0.00000000	          0.00000000	         13.75993267	        475.18439740	         27.84118416	         -0.02932063	         -0.02500000	         -0.05561451	          0.00000000	          0.00000000	          0.00000000	          0.00000000	         -4.31169151	          0.00000000	
          1.11200000	          0.00000000	          0.00000000	          0.00000000	          0.00000000	          0.00000000	          0.00000000	         16.81041657	        483.24802078	         28.37338559	         -0.02867511	         -0.02500000	         -0.05573156	          0.00000000	          0.00000000	          0.00000000	          0.00000000	         -4.57746682	          0.00000000	
          1.11600000	          0.00000000	          0.00000000	          0.00000000	          0.00000000	          0.00000000	          0.00000000	         19.74252137	        492.01129306	         28.83771547	         -0.02803509	         -0.02500000	         -0.05590160	          0.00000000	          0.00000000	          0.00000000	          0.00000000	         -4.84140355	          0.00000000	
          1.12000000	          0.00000000	          0.00000000	          0.00000000	          0.00000000	          0.00000000	          0.00000000	         22.51219509	        501.33229432	         29.25344228	         -0.02724040	         -0.02500000	         -0.05605058	          0.00000000	          0.00000000	          0.00000000	          0.00000000	         -5.10252329	          0.00000000	
          1.12400000	          0.00000000	          0.00000000	          0.00000000	          0.00000000	          0.00000000	          0.00000000	         25.09222168	        511.03830920	         29.63729450	         -0.02614028	         -0.02500000	         -0.05610175	          0.00000000	          0.00000000	          0.00000000	          0.00000000	         -5.36001254	          0.00000000	
          1.12800000	          0.00000000	          0.00000000	          0.00000000	          0.00000000	          0.00000000	          0.00000000	         27.46393140	        520.94906814	         30.02811327	         -0.02465560	         -0.02500000	         -0.05600246	          0.00000000	          0.00000000	          0.00000000	          0.00000000	         -5.61292909	          0.00000000	
          1.13200000	          0.00000000	          0.00000000	          0.00000000	          0.00000000	          0.00000000	          0.00000000	         29.61395375	        530.92114642	         30.49001248	         -0.02280060	         -0.02500000	         -0.05575124	          0.00000000	          0.00000000	          0.00000000	          0.00000000	         -5.86005907	          0.00000000	
          1.13600000	          0.00000000	          0.00000000	          0.00000000	          0.00000000	          0.00000000	          0.00000000	         31.53326958	        540.86776197	         31.09203253	         -0.02068421	         -0.02500000	         -0.05539448	          0.00000000	          0.00000000	          0.00000000	          0.00000000	         -6.10002709	          0.00000000	
          1.14000000	          0.00000000	          0.00000000	          0.00000000	          0.00000000	          0.00000000	          0.00000000	         33.20684521	        550.74400395	         31.87820779	         -0.01845919	         -0.02500000	         -0.05499736	          0.00000000	          0.00000000	          0.00000000	          0.00000000	         -6.33152345	          0.00000000	
          1.14400000	          0.00000000	          0.00000000	          0.00000000	          0.00000000	          0.00000000	          0.00000000	         34.61148859	        560.52891305	         32.83621243	         -0.01628367	         -0.02500000	         -0.05464361	          0.00000000	          0.00000000	          0.00000000	          0.00000000	         -6.55335352	          0.00000000	
          1.14800000	          0.00000000	          0.00000000	          0.00000000	          0.00000000	          0.00000000	          0.00000000	         35.74073467	        570.23306465	         33.89673646	         -0.01427395	         -0.02500000	         -0.05441495	          0.00000000	          0.00000000	          0.00000000	          0.00000000	         -6.76418383	          0.00000000	
          1.15200000	          0.00000000	          0.00000000	          0.00000000	          0.00000000	          0.00000000	          0.00000000	         36.63485308	        579.91675234	         34.98492570	         -0.01244372	         -0.02500000	         -0.05433958	          0.00000000	          0.00000000	          0.00000000	          0.00000000	         -6.96219190	          0.00000000	
          1.15600000	          0.00000000	          0.00000000	          0.00000000	          0.00000000	          0.00000000	          0.00000000	         37.37807263	        589.67534724	         36.07680103	         -0.01068845	         -0.02500000	         -0.05437359	          0.00000000	          0.00000000	          0.00000000	          0.00000000	         -7.14493447	          0.00000000	
          1.16000000	          0.00000000	          0.00000000	          0.00000000	          0.00000000	          0.00000000	          0.00000000	         38.05695534	        599.59304672	         37.20540646	         -0.00885232	         -0.02500000	         -0.05443496	          0.00000000	          0.00000000	          0.00000000	          0.00000000	         -7.30950497	          0.00000000	
          1.16400000	          0.00000000	          0.00000000	          0.00000000	          0.00000000	          0.00000000	          0.00000000	         38.71412764	        609.71655195	         38.42408739	         -0.00682818	         -0.02500000	         -0.05445546	          0.00000000	          0.00000000	          0.00000000	          0.00000000	         -7.45271423	          0.00000000	
          1.16800000	          0.00000000	          0.00000000	          0.00000000	          0.00000000	          0.00000000	          0.00000000	         39.33916257	        620.06236864	         39.76409997	         -0.00459747	         -0.02500000	         -0.05440631	          0.00000000	          0.00000000	          0.00000000	          0.00000000	         -7.57095792	          0.00000000	
          1.17200000	          0.00000000	          0.00000000	          0.00000000	          0.00000000	          0.00000000	          0.00000000	         39.90141980	        630.61248512	         41.22107169	         -0.00220257	         -0.02500000	         -0.05428867	          0.00000000	          0.00000000	          0.00000000	          0.00000000	         -7.65974753	          0.00000000	
          1.17600000	          0.00000000	          0.00000000	          0.00000000	          0.00000000	          0.00000000	          0.00000000	         40.39054448	        641.29536908	         42.78897282	          0.00027640	         -0.02500000	         -0.05412393	          0.00000000	          0.00000000	          0.00000000	          0.00000000	         -7.71333136	          0.00000000	
